<svg xmlns="http://www.w3.org/2000/svg" viewBox="0 0 152 152"><defs><style>.cls-1{fill:#fff;}.cls-2,.cls-4{fill:#21120b;}.cls-2,.cls-3{fill-rule:evenodd;}.cls-3{fill:#ff5800;}</style></defs><g id="Layer_2" data-name="Layer 2"><g id="Layer_1-2" data-name="Layer 1"><rect class="cls-1" width="152" height="152" rx="32.86"/><path class="cls-2" d="M103.08,50.17,91.55,56.81l-4.27,2.46a13.22,13.22,0,0,0-7.25-4V36.9l11.52,6.64Z"/><path class="cls-2" d="M74.39,36.9V55.36a13.26,13.26,0,0,0-6.85,4.14l-4.67-2.69L51.34,50.17l11.53-6.63Z"/><path class="cls-2" d="M64.83,72.2,60.05,75,48.52,81.59V55l11.53,6.64,4.75,2.74a13.51,13.51,0,0,0-.56,3.84A13.19,13.19,0,0,0,64.83,72.2Z"/><path class="cls-2" d="M74.29,81.14V99.79L62.77,93.15,51.24,86.51l11.53-6.64,4.83-2.78A13.19,13.19,0,0,0,74.29,81.14Z"/><path class="cls-2" d="M105.9,55V81.54L94.37,74.9l-4.26-2.45a13.22,13.22,0,0,0,0-8.37l4.26-2.45Z"/><path class="cls-2" d="M103.08,86.4,91.55,93,80,99.68V81.3a13.22,13.22,0,0,0,7.22-4l4.3,2.48Z"/><path class="cls-2" d="M71.48,104.65,60,98,48.42,91.38v26.54L60,111.29Z"/><path class="cls-3" d="M106,92.5,94.37,99l-11.61,6.49,11.38,6.82,11.39,6.81.23-13.3Z"/><path class="cls-4" d="M83.24,66.59h0l-5-4.58a1,1,0,0,0-1.36,0l-5,4.58a1,1,0,0,0-.32.75v5.83a1,1,0,0,0,1,1h10.1a1,1,0,0,0,1-1V67.34A1,1,0,0,0,83.24,66.59Z"/></g></g></svg>